{"title":"Jumping The Broom *2011* [CAM.XviD-miguel] [ENG]","uid":6532868,"size":1186038686,"categoryP":"video","categoryS":"movies","magnet":"?xt=urn:btih:2b1ae7fe23bb6a58b9ae0daded42a07158b20d4d&amp;dn=Jumping+The+Broom+%2A2011%2A+%5BCAM.XviD-miguel%5D+%5BENG%5D&amp;tr=udp%3A%2F%2Ftracker.openbittorrent.com%3A80&amp;tr=udp%3A%2F%2Fopen.demonii.com%3A1337&amp;tr=udp%3A%2F%2Ftracker.coppersurfer.tk%3A6969&amp;tr=udp%3A%2F%2Fexodus.desync.com%3A6969","seeders":0,"leechers":1,"uploader":"miguel1983","files":-1,"time":1310411449,"description":" &lt;a href=&quot;http://img851.imageshack.us/img851/9309/26894895693jumpingthebr.jpg&quot; rel=&quot;nofollow&quot; target=&quot;_NEW&quot;&gt;http://img851.imageshack.us/img851/9309/26894895693jumpingthebr.jpg&lt;/a&gt;\n\nCountry.......: USA\nGenre.........: Comedy\nDate release..: 06.05.2011 [World]\nDirector......: Salim Akil\nWriters.......: Elizabeth Hunter, Arlene Gibbs\nDuration......: 106 min.\nMore..........: http://www.imdb.com/title/tt1640484\nTrailer.......: http://www.imdb.com/video/imdb/vi2389350681\nTrailer.......:\n\nPilot :\nTwo very different families converge on Martha's Vineyard one weekend for a wedding.\n\nCats :\nAngela Bassett   \t ...  \tMrs. Watson\nPaula Patton \t... \tSabrina Watson\nLaz Alonso \t... \tJason Taylor\nLoretta Devine \t... \tMrs. Taylor\nMeagan Good \t... \tBlythe\nTasha Smith \t... \tShonda\nJulie Bowen \t... \tAmy\nDeRay Davis \t... \tMalcolm\nValarie Pettiford \t... \tAunt Geneva\nMike Epps \t... \tWillie Earl\nPooch Hall \t... \tRicky\nRomeo \tRomeo \t... \tSebastian (as Romeo Miller)\nBrian Stokes Mitchell \t... \tMr. Watson\nGary Dourdan \t... \tChef\nT.D. Jakes \t... \tReverend James \n\nData Technical :\n!!! SAMPLE !!!\nAudio.....: English\nSubtitles.: None\nFormat                           : AVI\nFormat/Info                      : Audio Video Interleave\nFormat profile                   : OpenDML\nFile size                        : 1.10 GiB\nDuration                         : 1h 45mn\nOverall bit rate                 : 1 491 Kbps\nWriting library                  : MPlayer\nVideo\nID                               : 0\nFormat                           : MPEG-4 Visual\nFormat profile                   : Advanced Simple@L5\nFormat settings, BVOP            : Yes\nFormat settings, QPel            : No\nFormat settings, GMC             : No warppoints\nFormat settings, Matrix          : Custom\nCodec ID                         : XVID\nCodec ID/Hint                    : XviD\nDuration                         : 5mn 41s\nBit rate                         : 1 342 Kbps\nWidth                            : 720 pixels\nHeight                           : 304 pixels\nDisplay aspect ratio             : 2.35:1\nFrame rate                       : 23.976 fps\nColor space                      : YUV\nChroma subsampling               : 4:2:0\nBit depth                        : 8 bits\nScan type                        : Progressive\nBits/(Pixel*Frame)               : 0.256\nStream size                      : 54.6 MiB (5%)\nWriting library                  : XviD 1.2.1 (UTC 2008-12-04)\nAudio\nID                               : 1\nFormat                           : MPEG Audio\nCodec ID                         : 55\nCodec ID/Hint                    : MP3\nDuration                         : 1h 45mn\nBit rate                         : 128 Kbps\nChannel(s)                       : 2 channels\nSampling rate                    : 44.1 KHz\nStream size                      : 96.6 MiB (9%)\nAlignment                        : Aligned on interleaves\n\nScreen : &lt;a href=&quot;\nhttp://img59.imageshack.us/img59/7130/jumpingthebroom2011s1.jpg&quot; rel=&quot;nofollow&quot; target=&quot;_NEW&quot;&gt;\nhttp://img59.imageshack.us/img59/7130/jumpingthebroom2011s1.jpg&lt;/a&gt; &lt;a href=&quot;\nhttp://img8.imageshack.us/img8/6043/jumpingthebroom2011s2.jpg&quot; rel=&quot;nofollow&quot; target=&quot;_NEW&quot;&gt;\nhttp://img8.imageshack.us/img8/6043/jumpingthebroom2011s2.jpg&lt;/a&gt; &lt;a href=&quot;\nhttp://img812.imageshack.us/img812/374/jumpingthebroom2011s3.jpg&quot; rel=&quot;nofollow&quot; target=&quot;_NEW&quot;&gt;\nhttp://img812.imageshack.us/img812/374/jumpingthebroom2011s3.jpg&lt;/a&gt; &lt;a href=&quot;\nhttp://img696.imageshack.us/img696/2451/jumpingthebroom2011s4.jpg&quot; rel=&quot;nofollow&quot; target=&quot;_NEW&quot;&gt;\nhttp://img696.imageshack.us/img696/2451/jumpingthebroom2011s4.jpg&lt;/a&gt; &lt;a href=&quot;\nhttp://img593.imageshack.us/img593/1328/jumpingthebroom2011s5.jpg&quot; rel=&quot;nofollow&quot; target=&quot;_NEW&quot;&gt;\nhttp://img593.imageshack.us/img593/1328/jumpingthebroom2011s5.jpg&lt;/a&gt;","torrent":{"xt":"urn:btih:2b1ae7fe23bb6a58b9ae0daded42a07158b20d4d","amp;dn":"Jumping+The+Broom+%2A2011%2A+%5BCAM.XviD-miguel%5D+%5BENG%5D","amp;tr":["udp%3A%2F%2Ftracker.openbittorrent.com%3A80","udp%3A%2F%2Fopen.demonii.com%3A1337","udp%3A%2F%2Ftracker.coppersurfer.tk%3A6969","udp%3A%2F%2Fexodus.desync.com%3A6969"],"infoHash":"2b1ae7fe23bb6a58b9ae0daded42a07158b20d4d","infoHashBuffer":{"type":"Buffer","data":[43,26,231,254,35,187,106,88,185,174,13,173,237,66,160,113,88,178,13,77]},"announce":[],"urlList":[]}}